<svg width="80" height="80" viewBox="0 0 80 80" fill="none" xmlns="http://www.w3.org/2000/svg">
<g style="mix-blend-mode:overlay" filter="url(#filter0_d_1_4)">
<circle cx="40" cy="36" r="36" fill="#545454"/>
<circle cx="40" cy="36" r="35.5" stroke="black"/>
</g>
<g style="mix-blend-mode:hard-light">
<path d="M36.5938 24H37.5625V29.7187C37.5625 30.2292 37.4688 30.6628 37.2813 31.0195C37.0938 31.3763 36.8294 31.6471 36.4883 31.832C36.1471 32.0169 35.7448 32.1094 35.2813 32.1094C34.8438 32.1094 34.4544 32.0299 34.1133 31.8711C33.7721 31.7096 33.5039 31.4805 33.3086 31.1836C33.1133 30.8867 33.0156 30.5339 33.0156 30.125H33.9687C33.9687 30.3516 34.0247 30.5495 34.1367 30.7187C34.2513 30.8854 34.4076 31.0156 34.6055 31.1094C34.8034 31.2031 35.0286 31.25 35.2813 31.25C35.5599 31.25 35.7969 31.1914 35.9922 31.0742C36.1875 30.957 36.3359 30.7852 36.4375 30.5586C36.5417 30.3294 36.5938 30.0495 36.5938 29.7187V24ZM39.5039 32V24H42.207C42.8346 24 43.3477 24.1133 43.7461 24.3398C44.1471 24.5638 44.444 24.8672 44.6367 25.25C44.8294 25.6328 44.9258 26.0599 44.9258 26.5312C44.9258 27.0026 44.8294 27.431 44.6367 27.8164C44.4466 28.2018 44.1523 28.5091 43.7539 28.7383C43.3555 28.9648 42.8451 29.0781 42.2227 29.0781H40.2852V28.2188H42.1914C42.6211 28.2188 42.9661 28.1445 43.2266 27.9961C43.487 27.8477 43.6758 27.6471 43.793 27.3945C43.9128 27.1393 43.9727 26.8516 43.9727 26.5312C43.9727 26.2109 43.9128 25.9245 43.793 25.6719C43.6758 25.4193 43.4857 25.2214 43.2227 25.0781C42.9596 24.9323 42.6107 24.8594 42.1758 24.8594H40.4727V32H39.5039ZM14.9688 45V37H17.6719C18.2995 37 18.8125 37.1133 19.2109 37.3398C19.612 37.5638 19.9089 37.8672 20.1016 38.25C20.2943 38.6328 20.3906 39.0599 20.3906 39.5312C20.3906 40.0026 20.2943 40.431 20.1016 40.8164C19.9115 41.2018 19.6172 41.5091 19.2188 41.7383C18.8203 41.9648 18.3099 42.0781 17.6875 42.0781H15.75V41.2188H17.6563C18.0859 41.2188 18.431 41.1445 18.6914 40.9961C18.9518 40.8477 19.1406 40.6471 19.2578 40.3945C19.3776 40.1393 19.4375 39.8516 19.4375 39.5312C19.4375 39.2109 19.3776 38.9245 19.2578 38.6719C19.1406 38.4193 18.9505 38.2214 18.6875 38.0781C18.4245 37.9323 18.0755 37.8594 17.6406 37.8594H15.9375V45H14.9688ZM21.8262 45V39H22.7168V39.9062H22.7793C22.8887 39.6094 23.0866 39.3685 23.373 39.1836C23.6595 38.9987 23.9824 38.9062 24.3418 38.9062C24.4095 38.9062 24.4941 38.9076 24.5957 38.9102C24.6973 38.9128 24.7741 38.9167 24.8262 38.9219V39.8594C24.7949 39.8516 24.7233 39.8398 24.6113 39.8242C24.502 39.806 24.3861 39.7969 24.2637 39.7969C23.972 39.7969 23.7116 39.8581 23.4824 39.9805C23.2559 40.1003 23.0762 40.2669 22.9434 40.4805C22.8132 40.6914 22.748 40.9323 22.748 41.2031V45H21.8262ZM28.1738 45.125C27.6322 45.125 27.1569 44.9961 26.748 44.7383C26.3418 44.4805 26.0241 44.1198 25.7949 43.6562C25.5684 43.1927 25.4551 42.651 25.4551 42.0312C25.4551 41.4062 25.5684 40.8607 25.7949 40.3945C26.0241 39.9284 26.3418 39.5664 26.748 39.3086C27.1569 39.0508 27.6322 38.9219 28.1738 38.9219C28.7155 38.9219 29.1895 39.0508 29.5957 39.3086C30.0046 39.5664 30.3223 39.9284 30.5488 40.3945C30.778 40.8607 30.8926 41.4062 30.8926 42.0312C30.8926 42.651 30.778 43.1927 30.5488 43.6562C30.3223 44.1198 30.0046 44.4805 29.5957 44.7383C29.1895 44.9961 28.7155 45.125 28.1738 45.125ZM28.1738 44.2969C28.5853 44.2969 28.9238 44.1914 29.1895 43.9805C29.4551 43.7695 29.6517 43.4922 29.7793 43.1484C29.9069 42.8047 29.9707 42.4323 29.9707 42.0312C29.9707 41.6302 29.9069 41.2565 29.7793 40.9102C29.6517 40.5638 29.4551 40.2839 29.1895 40.0703C28.9238 39.8568 28.5853 39.75 28.1738 39.75C27.7624 39.75 27.4238 39.8568 27.1582 40.0703C26.8926 40.2839 26.696 40.5638 26.5684 40.9102C26.4408 41.2565 26.377 41.6302 26.377 42.0312C26.377 42.4323 26.4408 42.8047 26.5684 43.1484C26.696 43.4922 26.8926 43.7695 27.1582 43.9805C27.4238 44.1914 27.7624 44.2969 28.1738 44.2969ZM34.7217 47.375C34.2764 47.375 33.8936 47.3177 33.5732 47.2031C33.2529 47.0911 32.986 46.9427 32.7725 46.7578C32.5615 46.5755 32.3936 46.3802 32.2686 46.1719L33.0029 45.6563C33.0863 45.7656 33.1917 45.8906 33.3193 46.0312C33.4469 46.1745 33.6214 46.2982 33.8428 46.4023C34.0667 46.5091 34.3597 46.5625 34.7217 46.5625C35.2061 46.5625 35.6058 46.4453 35.9209 46.2109C36.236 45.9766 36.3936 45.6094 36.3936 45.1094V43.8906H36.3154C36.2477 44 36.1514 44.1354 36.0264 44.2969C35.904 44.4557 35.7269 44.5977 35.4951 44.7227C35.266 44.8451 34.9561 44.9062 34.5654 44.9062C34.0811 44.9062 33.6462 44.7917 33.2607 44.5625C32.8779 44.3333 32.5745 44 32.3506 43.5625C32.1292 43.125 32.0186 42.5937 32.0186 41.9687C32.0186 41.3542 32.1266 40.819 32.3428 40.3633C32.5589 39.9049 32.8597 39.5508 33.2451 39.3008C33.6305 39.0482 34.0758 38.9219 34.5811 38.9219C34.9717 38.9219 35.2816 38.987 35.5107 39.1172C35.7425 39.2448 35.9196 39.3906 36.042 39.5547C36.167 39.7161 36.2633 39.849 36.3311 39.9531H36.4248V39H37.3154V45.1719C37.3154 45.6875 37.1982 46.1068 36.9639 46.4297C36.7321 46.7552 36.4196 46.9935 36.0264 47.1445C35.6357 47.2982 35.2008 47.375 34.7217 47.375ZM34.6904 44.0781C35.0602 44.0781 35.3727 43.9935 35.6279 43.8242C35.8831 43.6549 36.0771 43.4115 36.21 43.0938C36.3428 42.776 36.4092 42.3958 36.4092 41.9531C36.4092 41.5208 36.3441 41.1393 36.2139 40.8086C36.0837 40.4779 35.891 40.2187 35.6357 40.0312C35.3805 39.8437 35.0654 39.75 34.6904 39.75C34.2998 39.75 33.9743 39.849 33.7139 40.0469C33.4561 40.2448 33.262 40.5104 33.1318 40.8438C33.0042 41.1771 32.9404 41.5469 32.9404 41.9531C32.9404 42.3698 33.0055 42.7383 33.1357 43.0586C33.2686 43.3763 33.4639 43.6263 33.7217 43.8086C33.9821 43.9883 34.305 44.0781 34.6904 44.0781ZM39.0029 45V39H39.8936V39.9062H39.9561C40.0654 39.6094 40.2633 39.3685 40.5498 39.1836C40.8363 38.9987 41.1592 38.9062 41.5186 38.9062C41.5863 38.9062 41.6709 38.9076 41.7725 38.9102C41.874 38.9128 41.9508 38.9167 42.0029 38.9219V39.8594C41.9717 39.8516 41.9001 39.8398 41.7881 39.8242C41.6787 39.806 41.5628 39.7969 41.4404 39.7969C41.1488 39.7969 40.8883 39.8581 40.6592 39.9805C40.4326 40.1003 40.2529 40.2669 40.1201 40.4805C39.9899 40.6914 39.9248 40.9323 39.9248 41.2031V45H39.0029ZM44.8613 45.1406C44.4811 45.1406 44.1361 45.069 43.8262 44.9258C43.5163 44.7799 43.2702 44.5703 43.0879 44.2969C42.9056 44.0208 42.8145 43.6875 42.8145 43.2969C42.8145 42.9531 42.8822 42.6745 43.0176 42.4609C43.153 42.2448 43.334 42.0755 43.5605 41.9531C43.7871 41.8307 44.0371 41.7396 44.3105 41.6797C44.5866 41.6172 44.8639 41.5677 45.1426 41.5313C45.5072 41.4844 45.8027 41.4492 46.0293 41.4258C46.2585 41.3997 46.4251 41.3568 46.5293 41.2969C46.6361 41.237 46.6895 41.1328 46.6895 40.9844V40.9531C46.6895 40.5677 46.584 40.2682 46.373 40.0547C46.1647 39.8411 45.8483 39.7344 45.4238 39.7344C44.9837 39.7344 44.6387 39.8307 44.3887 40.0234C44.1387 40.2161 43.9629 40.4219 43.8613 40.6406L42.9863 40.3281C43.1426 39.9635 43.3509 39.6797 43.6113 39.4766C43.8743 39.2708 44.1608 39.1276 44.4707 39.0469C44.7832 38.9635 45.0905 38.9219 45.3926 38.9219C45.5853 38.9219 45.8066 38.9453 46.0566 38.9922C46.3092 39.0365 46.5527 39.1289 46.7871 39.2695C47.0241 39.4102 47.2207 39.6224 47.377 39.9062C47.5332 40.1901 47.6113 40.5703 47.6113 41.0469V45H46.6895V44.1875H46.6426C46.5801 44.3177 46.4759 44.457 46.3301 44.6055C46.1842 44.7539 45.9902 44.8802 45.748 44.9844C45.5059 45.0885 45.2103 45.1406 44.8613 45.1406ZM45.002 44.3125C45.3665 44.3125 45.6738 44.2409 45.9238 44.0977C46.1764 43.9544 46.3665 43.7695 46.4941 43.543C46.6243 43.3164 46.6895 43.0781 46.6895 42.8281V41.9844C46.6504 42.0312 46.5645 42.0742 46.4316 42.1133C46.3014 42.1497 46.1504 42.1823 45.9785 42.2109C45.8092 42.237 45.6439 42.2604 45.4824 42.2812C45.3236 42.2995 45.1947 42.3151 45.0957 42.3281C44.8561 42.3594 44.6322 42.4102 44.4238 42.4805C44.2181 42.5482 44.0514 42.651 43.9238 42.7891C43.7988 42.9245 43.7363 43.1094 43.7363 43.3437C43.7363 43.6641 43.8548 43.9062 44.0918 44.0703C44.3314 44.2318 44.6348 44.3125 45.002 44.3125ZM49.2939 45V39H50.1846V39.9375H50.2627C50.3877 39.6172 50.5895 39.3685 50.8682 39.1914C51.1468 39.0117 51.4814 38.9219 51.8721 38.9219C52.2679 38.9219 52.5973 39.0117 52.8604 39.1914C53.126 39.3685 53.333 39.6172 53.4814 39.9375H53.5439C53.6976 39.6276 53.9281 39.3815 54.2354 39.1992C54.5426 39.0143 54.9111 38.9219 55.3408 38.9219C55.8773 38.9219 56.3161 39.0898 56.6572 39.4258C56.9984 39.7591 57.1689 40.2786 57.1689 40.9844V45H56.2471V40.9844C56.2471 40.5417 56.126 40.2253 55.8838 40.0352C55.6416 39.8451 55.3564 39.75 55.0283 39.75C54.6064 39.75 54.2796 39.8776 54.0479 40.1328C53.8161 40.3854 53.7002 40.7057 53.7002 41.0937V45H52.7627V40.8906C52.7627 40.5495 52.652 40.2747 52.4307 40.0664C52.2093 39.8555 51.9242 39.75 51.5752 39.75C51.3356 39.75 51.1117 39.8138 50.9033 39.9414C50.6976 40.069 50.5309 40.2461 50.4033 40.4727C50.2783 40.6966 50.2158 40.9557 50.2158 41.25V45H49.2939ZM60.6201 45.1406C60.2399 45.1406 59.8949 45.069 59.585 44.9258C59.2751 44.7799 59.029 44.5703 58.8467 44.2969C58.6644 44.0208 58.5732 43.6875 58.5732 43.2969C58.5732 42.9531 58.641 42.6745 58.7764 42.4609C58.9118 42.2448 59.0928 42.0755 59.3193 41.9531C59.5459 41.8307 59.7959 41.7396 60.0693 41.6797C60.3454 41.6172 60.6227 41.5677 60.9014 41.5313C61.266 41.4844 61.5615 41.4492 61.7881 41.4258C62.0173 41.3997 62.1839 41.3568 62.2881 41.2969C62.3949 41.237 62.4482 41.1328 62.4482 40.9844V40.9531C62.4482 40.5677 62.3428 40.2682 62.1318 40.0547C61.9235 39.8411 61.6071 39.7344 61.1826 39.7344C60.7425 39.7344 60.3975 39.8307 60.1475 40.0234C59.8975 40.2161 59.7217 40.4219 59.6201 40.6406L58.7451 40.3281C58.9014 39.9635 59.1097 39.6797 59.3701 39.4766C59.6331 39.2708 59.9196 39.1276 60.2295 39.0469C60.542 38.9635 60.8493 38.9219 61.1514 38.9219C61.3441 38.9219 61.5654 38.9453 61.8154 38.9922C62.068 39.0365 62.3115 39.1289 62.5459 39.2695C62.7829 39.4102 62.9795 39.6224 63.1357 39.9062C63.292 40.1901 63.3701 40.5703 63.3701 41.0469V45H62.4482V44.1875H62.4014C62.3389 44.3177 62.2347 44.457 62.0889 44.6055C61.943 44.7539 61.749 44.8802 61.5068 44.9844C61.2646 45.0885 60.9691 45.1406 60.6201 45.1406ZM60.7607 44.3125C61.1253 44.3125 61.4326 44.2409 61.6826 44.0977C61.9352 43.9544 62.1253 43.7695 62.2529 43.543C62.3831 43.3164 62.4482 43.0781 62.4482 42.8281V41.9844C62.4092 42.0312 62.3232 42.0742 62.1904 42.1133C62.0602 42.1497 61.9092 42.1823 61.7373 42.2109C61.568 42.237 61.4027 42.2604 61.2412 42.2812C61.0824 42.2995 60.9535 42.3151 60.8545 42.3281C60.6149 42.3594 60.391 42.4102 60.1826 42.4805C59.9769 42.5482 59.8102 42.651 59.6826 42.7891C59.5576 42.9245 59.4951 43.1094 59.4951 43.3437C59.4951 43.6641 59.6136 43.9062 59.8506 44.0703C60.0902 44.2318 60.3936 44.3125 60.7607 44.3125Z" fill="white"/>
</g>
<defs>
<filter id="filter0_d_1_4" x="0" y="0" width="80" height="80" filterUnits="userSpaceOnUse" color-interpolation-filters="sRGB">
<feFlood flood-opacity="0" result="BackgroundImageFix"/>
<feColorMatrix in="SourceAlpha" type="matrix" values="0 0 0 0 0 0 0 0 0 0 0 0 0 0 0 0 0 0 127 0" result="hardAlpha"/>
<feOffset dy="4"/>
<feGaussianBlur stdDeviation="2"/>
<feComposite in2="hardAlpha" operator="out"/>
<feColorMatrix type="matrix" values="0 0 0 0 0 0 0 0 0 0 0 0 0 0 0 0 0 0 0.25 0"/>
<feBlend mode="normal" in2="BackgroundImageFix" result="effect1_dropShadow_1_4"/>
<feBlend mode="normal" in="SourceGraphic" in2="effect1_dropShadow_1_4" result="shape"/>
</filter>
</defs>
</svg>
